<svg width="112" height="112" viewBox="0 0 112 112" fill="none" xmlns="http://www.w3.org/2000/svg">
<g clip-path="url(#clip0_66_2893)">
<path d="M129.5 -8.75H0V120.75H129.5V-8.75Z" fill="white"/>
<path d="M4.46552 0.18103H0V4.64655H4.46552V0.18103Z" fill="#130E2F"/>
<path d="M4.46552 4.64655H0V9.11206H4.46552V4.64655Z" fill="#130E2F"/>
<path d="M4.46552 9.11206H0V13.5776H4.46552V9.11206Z" fill="#130E2F"/>
<path d="M4.46552 13.5776H0V18.0431H4.46552V13.5776Z" fill="#130E2F"/>
<path d="M4.46552 18.0431H0V22.5086H4.46552V18.0431Z" fill="#130E2F"/>
<path d="M4.46552 22.5086H0V26.9741H4.46552V22.5086Z" fill="#130E2F"/>
<path d="M4.46552 26.9741H0V31.4396H4.46552V26.9741Z" fill="#130E2F"/>
<path d="M4.46552 35.9052H0V40.3707H4.46552V35.9052Z" fill="#130E2F"/>
<path d="M4.46552 49.3017H0V53.7672H4.46552V49.3017Z" fill="#130E2F"/>
<path d="M4.46552 80.5604H0V85.0259H4.46552V80.5604Z" fill="#130E2F"/>
<path d="M4.46552 85.0259H0V89.4914H4.46552V85.0259Z" fill="#130E2F"/>
<path d="M4.46552 89.4914H0V93.9569H4.46552V89.4914Z" fill="#130E2F"/>
<path d="M4.46552 93.9569H0V98.4224H4.46552V93.9569Z" fill="#130E2F"/>
<path d="M4.46552 98.4224H0V102.888H4.46552V98.4224Z" fill="#130E2F"/>
<path d="M4.46552 102.888H0V107.353H4.46552V102.888Z" fill="#130E2F"/>
<path d="M4.46552 107.353H0V111.819H4.46552V107.353Z" fill="#130E2F"/>
<path d="M8.93109 0.18103H4.46558V4.64655H8.93109V0.18103Z" fill="#130E2F"/>
<path d="M8.93109 26.9741H4.46558V31.4396H8.93109V26.9741Z" fill="#130E2F"/>
<path d="M8.93109 35.9052H4.46558V40.3707H8.93109V35.9052Z" fill="#130E2F"/>
<path d="M8.93109 44.8362H4.46558V49.3017H8.93109V44.8362Z" fill="#130E2F"/>
<path d="M8.93109 49.3017H4.46558V53.7672H8.93109V49.3017Z" fill="#130E2F"/>
<path d="M8.93109 53.7672H4.46558V58.2327H8.93109V53.7672Z" fill="#130E2F"/>
<path d="M8.93109 58.2327H4.46558V62.6982H8.93109V58.2327Z" fill="#130E2F"/>
<path d="M8.93109 62.6982H4.46558V67.1638H8.93109V62.6982Z" fill="#130E2F"/>
<path d="M8.93109 67.1638H4.46558V71.6293H8.93109V67.1638Z" fill="#130E2F"/>
<path d="M8.93109 71.6293H4.46558V76.0948H8.93109V71.6293Z" fill="#130E2F"/>
<path d="M8.93109 80.5604H4.46558V85.0259H8.93109V80.5604Z" fill="#130E2F"/>
<path d="M8.93109 107.353H4.46558V111.819H8.93109V107.353Z" fill="#130E2F"/>
<path d="M13.3965 0.18103H8.93103V4.64655H13.3965V0.18103Z" fill="#130E2F"/>
<path d="M13.3965 9.11206H8.93103V13.5776H13.3965V9.11206Z" fill="#130E2F"/>
<path d="M13.3965 13.5776H8.93103V18.0431H13.3965V13.5776Z" fill="#130E2F"/>
<path d="M13.3965 18.0431H8.93103V22.5086H13.3965V18.0431Z" fill="#130E2F"/>
<path d="M13.3965 26.9741H8.93103V31.4396H13.3965V26.9741Z" fill="#130E2F"/>
<path d="M13.3965 35.9052H8.93103V40.3707H13.3965V35.9052Z" fill="#130E2F"/>
<path d="M13.3965 40.3707H8.93103V44.8362H13.3965V40.3707Z" fill="#130E2F"/>
<path d="M13.3965 49.3017H8.93103V53.7672H13.3965V49.3017Z" fill="#130E2F"/>
<path d="M13.3965 67.1638H8.93103V71.6293H13.3965V67.1638Z" fill="#130E2F"/>
<path d="M13.3965 80.5604H8.93103V85.0259H13.3965V80.5604Z" fill="#130E2F"/>
<path d="M13.3965 89.4914H8.93103V93.9569H13.3965V89.4914Z" fill="#130E2F"/>
<path d="M13.3965 93.9569H8.93103V98.4224H13.3965V93.9569Z" fill="#130E2F"/>
<path d="M13.3965 98.4224H8.93103V102.888H13.3965V98.4224Z" fill="#130E2F"/>
<path d="M13.3965 107.353H8.93103V111.819H13.3965V107.353Z" fill="#130E2F"/>
<path d="M17.8621 0.18103H13.3966V4.64655H17.8621V0.18103Z" fill="#130E2F"/>
<path d="M17.8621 9.11206H13.3966V13.5776H17.8621V9.11206Z" fill="#130E2F"/>
<path d="M17.8621 13.5776H13.3966V18.0431H17.8621V13.5776Z" fill="#130E2F"/>
<path d="M17.8621 18.0431H13.3966V22.5086H17.8621V18.0431Z" fill="#130E2F"/>
<path d="M17.8621 26.9741H13.3966V31.4396H17.8621V26.9741Z" fill="#130E2F"/>
<path d="M17.8621 35.9052H13.3966V40.3707H17.8621V35.9052Z" fill="#130E2F"/>
<path d="M17.8621 67.1638H13.3966V71.6293H17.8621V67.1638Z" fill="#130E2F"/>
<path d="M17.8621 80.5604H13.3966V85.0259H17.8621V80.5604Z" fill="#130E2F"/>
<path d="M17.8621 89.4914H13.3966V93.9569H17.8621V89.4914Z" fill="#130E2F"/>
<path d="M17.8621 93.9569H13.3966V98.4224H17.8621V93.9569Z" fill="#130E2F"/>
<path d="M17.8621 98.4224H13.3966V102.888H17.8621V98.4224Z" fill="#130E2F"/>
<path d="M17.8621 107.353H13.3966V111.819H17.8621V107.353Z" fill="#130E2F"/>
<path d="M22.3276 0.18103H17.8621V4.64655H22.3276V0.18103Z" fill="#130E2F"/>
<path d="M22.3276 9.11206H17.8621V13.5776H22.3276V9.11206Z" fill="#130E2F"/>
<path d="M22.3276 13.5776H17.8621V18.0431H22.3276V13.5776Z" fill="#130E2F"/>
<path d="M22.3276 18.0431H17.8621V22.5086H22.3276V18.0431Z" fill="#130E2F"/>
<path d="M22.3276 26.9741H17.8621V31.4396H22.3276V26.9741Z" fill="#130E2F"/>
<path d="M22.3276 35.9052H17.8621V40.3707H22.3276V35.9052Z" fill="#130E2F"/>
<path d="M22.3276 44.8362H17.8621V49.3017H22.3276V44.8362Z" fill="#130E2F"/>
<path d="M22.3276 53.7672H17.8621V58.2327H22.3276V53.7672Z" fill="#130E2F"/>
<path d="M22.3276 62.6982H17.8621V67.1638H22.3276V62.6982Z" fill="#130E2F"/>
<path d="M22.3276 67.1638H17.8621V71.6293H22.3276V67.1638Z" fill="#130E2F"/>
<path d="M22.3276 80.5604H17.8621V85.0259H22.3276V80.5604Z" fill="#130E2F"/>
<path d="M22.3276 89.4914H17.8621V93.9569H22.3276V89.4914Z" fill="#130E2F"/>
<path d="M22.3276 93.9569H17.8621V98.4224H22.3276V93.9569Z" fill="#130E2F"/>
<path d="M22.3276 98.4224H17.8621V102.888H22.3276V98.4224Z" fill="#130E2F"/>
<path d="M22.3276 107.353H17.8621V111.819H22.3276V107.353Z" fill="#130E2F"/>
<path d="M26.7932 0.18103H22.3276V4.64655H26.7932V0.18103Z" fill="#130E2F"/>
<path d="M26.7932 26.9741H22.3276V31.4396H26.7932V26.9741Z" fill="#130E2F"/>
<path d="M26.7932 40.3707H22.3276V44.8362H26.7932V40.3707Z" fill="#130E2F"/>
<path d="M26.7932 44.8362H22.3276V49.3017H26.7932V44.8362Z" fill="#130E2F"/>
<path d="M26.7932 53.7672H22.3276V58.2327H26.7932V53.7672Z" fill="#130E2F"/>
<path d="M26.7932 67.1638H22.3276V71.6293H26.7932V67.1638Z" fill="#130E2F"/>
<path d="M26.7932 71.6293H22.3276V76.0948H26.7932V71.6293Z" fill="#130E2F"/>
<path d="M26.7932 80.5604H22.3276V85.0259H26.7932V80.5604Z" fill="#130E2F"/>
<path d="M26.7932 107.353H22.3276V111.819H26.7932V107.353Z" fill="#130E2F"/>
<path d="M31.2586 0.18103H26.7931V4.64655H31.2586V0.18103Z" fill="#130E2F"/>
<path d="M31.2586 4.64655H26.7931V9.11206H31.2586V4.64655Z" fill="#130E2F"/>
<path d="M31.2586 9.11206H26.7931V13.5776H31.2586V9.11206Z" fill="#130E2F"/>
<path d="M31.2586 13.5776H26.7931V18.0431H31.2586V13.5776Z" fill="#130E2F"/>
<path d="M31.2586 18.0431H26.7931V22.5086H31.2586V18.0431Z" fill="#130E2F"/>
<path d="M31.2586 22.5086H26.7931V26.9741H31.2586V22.5086Z" fill="#130E2F"/>
<path d="M31.2586 26.9741H26.7931V31.4396H31.2586V26.9741Z" fill="#130E2F"/>
<path d="M31.2586 35.9052H26.7931V40.3707H31.2586V35.9052Z" fill="#130E2F"/>
<path d="M31.2586 44.8362H26.7931V49.3017H31.2586V44.8362Z" fill="#130E2F"/>
<path d="M31.2586 53.7672H26.7931V58.2327H31.2586V53.7672Z" fill="#130E2F"/>
<path d="M31.2586 62.6982H26.7931V67.1638H31.2586V62.6982Z" fill="#130E2F"/>
<path d="M31.2586 71.6293H26.7931V76.0948H31.2586V71.6293Z" fill="#130E2F"/>
<path d="M31.2586 80.5604H26.7931V85.0259H31.2586V80.5604Z" fill="#130E2F"/>
<path d="M31.2586 85.0259H26.7931V89.4914H31.2586V85.0259Z" fill="#130E2F"/>
<path d="M31.2586 89.4914H26.7931V93.9569H31.2586V89.4914Z" fill="#130E2F"/>
<path d="M31.2586 93.9569H26.7931V98.4224H31.2586V93.9569Z" fill="#130E2F"/>
<path d="M31.2586 98.4224H26.7931V102.888H31.2586V98.4224Z" fill="#130E2F"/>
<path d="M31.2586 102.888H26.7931V107.353H31.2586V102.888Z" fill="#130E2F"/>
<path d="M31.2586 107.353H26.7931V111.819H31.2586V107.353Z" fill="#130E2F"/>
<path d="M35.7242 35.9052H31.2587V40.3707H35.7242V35.9052Z" fill="#130E2F"/>
<path d="M35.7242 44.8362H31.2587V49.3017H35.7242V44.8362Z" fill="#130E2F"/>
<path d="M35.7242 49.3017H31.2587V53.7672H35.7242V49.3017Z" fill="#130E2F"/>
<path d="M35.7242 58.2327H31.2587V62.6982H35.7242V58.2327Z" fill="#130E2F"/>
<path d="M35.7242 62.6982H31.2587V67.1638H35.7242V62.6982Z" fill="#130E2F"/>
<path d="M35.7242 67.1638H31.2587V71.6293H35.7242V67.1638Z" fill="#130E2F"/>
<path d="M40.1896 4.64655H35.7241V9.11206H40.1896V4.64655Z" fill="#130E2F"/>
<path d="M40.1896 13.5776H35.7241V18.0431H40.1896V13.5776Z" fill="#130E2F"/>
<path d="M40.1896 22.5086H35.7241V26.9741H40.1896V22.5086Z" fill="#130E2F"/>
<path d="M40.1896 26.9741H35.7241V31.4396H40.1896V26.9741Z" fill="#130E2F"/>
<path d="M40.1896 35.9052H35.7241V40.3707H40.1896V35.9052Z" fill="#130E2F"/>
<path d="M40.1896 40.3707H35.7241V44.8362H40.1896V40.3707Z" fill="#130E2F"/>
<path d="M40.1896 44.8362H35.7241V49.3017H40.1896V44.8362Z" fill="#130E2F"/>
<path d="M40.1896 58.2327H35.7241V62.6982H40.1896V58.2327Z" fill="#130E2F"/>
<path d="M40.1896 71.6293H35.7241V76.0948H40.1896V71.6293Z" fill="#130E2F"/>
<path d="M40.1896 76.0948H35.7241V80.5604H40.1896V76.0948Z" fill="#130E2F"/>
<path d="M40.1896 80.5604H35.7241V85.0259H40.1896V80.5604Z" fill="#130E2F"/>
<path d="M40.1896 89.4914H35.7241V93.9569H40.1896V89.4914Z" fill="#130E2F"/>
<path d="M40.1896 93.9569H35.7241V98.4224H40.1896V93.9569Z" fill="#130E2F"/>
<path d="M40.1896 98.4224H35.7241V102.888H40.1896V98.4224Z" fill="#130E2F"/>
<path d="M40.1896 102.888H35.7241V107.353H40.1896V102.888Z" fill="#130E2F"/>
<path d="M40.1896 107.353H35.7241V111.819H40.1896V107.353Z" fill="#130E2F"/>
<path d="M44.6552 13.5776H40.1897V18.0431H44.6552V13.5776Z" fill="#130E2F"/>
<path d="M44.6552 18.0431H40.1897V22.5086H44.6552V18.0431Z" fill="#130E2F"/>
<path d="M44.6552 22.5086H40.1897V26.9741H44.6552V22.5086Z" fill="#130E2F"/>
<path d="M44.6552 31.4396H40.1897V35.9052H44.6552V31.4396Z" fill="#130E2F"/>
<path d="M44.6552 35.9052H40.1897V40.3707H44.6552V35.9052Z" fill="#130E2F"/>
<path d="M44.6552 53.7672H40.1897V58.2327H44.6552V53.7672Z" fill="#130E2F"/>
<path d="M44.6552 58.2327H40.1897V62.6982H44.6552V58.2327Z" fill="#130E2F"/>
<path d="M44.6552 62.6982H40.1897V67.1638H44.6552V62.6982Z" fill="#130E2F"/>
<path d="M44.6552 71.6293H40.1897V76.0948H44.6552V71.6293Z" fill="#130E2F"/>
<path d="M44.6552 80.5604H40.1897V85.0259H44.6552V80.5604Z" fill="#130E2F"/>
<path d="M44.6552 89.4914H40.1897V93.9569H44.6552V89.4914Z" fill="#130E2F"/>
<path d="M44.6552 102.888H40.1897V107.353H44.6552V102.888Z" fill="#130E2F"/>
<path d="M49.1207 0.18103H44.6552V4.64655H49.1207V0.18103Z" fill="#130E2F"/>
<path d="M49.1207 4.64655H44.6552V9.11206H49.1207V4.64655Z" fill="#130E2F"/>
<path d="M49.1207 13.5776H44.6552V18.0431H49.1207V13.5776Z" fill="#130E2F"/>
<path d="M49.1207 26.9741H44.6552V31.4396H49.1207V26.9741Z" fill="#130E2F"/>
<path d="M49.1207 31.4396H44.6552V35.9052H49.1207V31.4396Z" fill="#130E2F"/>
<path d="M49.1207 40.3707H44.6552V44.8362H49.1207V40.3707Z" fill="#130E2F"/>
<path d="M49.1207 44.8362H44.6552V49.3017H49.1207V44.8362Z" fill="#130E2F"/>
<path d="M49.1207 53.7672H44.6552V58.2327H49.1207V53.7672Z" fill="#130E2F"/>
<path d="M49.1207 67.1638H44.6552V71.6293H49.1207V67.1638Z" fill="#130E2F"/>
<path d="M49.1207 80.5604H44.6552V85.0259H49.1207V80.5604Z" fill="#130E2F"/>
<path d="M49.1207 85.0259H44.6552V89.4914H49.1207V85.0259Z" fill="#130E2F"/>
<path d="M49.1207 89.4914H44.6552V93.9569H49.1207V89.4914Z" fill="#130E2F"/>
<path d="M49.1207 93.9569H44.6552V98.4224H49.1207V93.9569Z" fill="#130E2F"/>
<path d="M49.1207 98.4224H44.6552V102.888H49.1207V98.4224Z" fill="#130E2F"/>
<path d="M53.5862 22.5086H49.1207V26.9741H53.5862V22.5086Z" fill="#130E2F"/>
<path d="M53.5862 31.4396H49.1207V35.9052H53.5862V31.4396Z" fill="#130E2F"/>
<path d="M53.5862 35.9052H49.1207V40.3707H53.5862V35.9052Z" fill="#130E2F"/>
<path d="M53.5862 49.3017H49.1207V53.7672H53.5862V49.3017Z" fill="#130E2F"/>
<path d="M53.5862 58.2327H49.1207V62.6982H53.5862V58.2327Z" fill="#130E2F"/>
<path d="M53.5862 67.1638H49.1207V71.6293H53.5862V67.1638Z" fill="#130E2F"/>
<path d="M53.5862 76.0948H49.1207V80.5604H53.5862V76.0948Z" fill="#130E2F"/>
<path d="M53.5862 85.0259H49.1207V89.4914H53.5862V85.0259Z" fill="#130E2F"/>
<path d="M53.5862 93.9569H49.1207V98.4224H53.5862V93.9569Z" fill="#130E2F"/>
<path d="M53.5862 102.888H49.1207V107.353H53.5862V102.888Z" fill="#130E2F"/>
<path d="M53.5862 107.353H49.1207V111.819H53.5862V107.353Z" fill="#130E2F"/>
<path d="M58.0517 0.18103H53.5862V4.64655H58.0517V0.18103Z" fill="#130E2F"/>
<path d="M58.0517 9.11206H53.5862V13.5776H58.0517V9.11206Z" fill="#130E2F"/>
<path d="M58.0517 13.5776H53.5862V18.0431H58.0517V13.5776Z" fill="#130E2F"/>
<path d="M58.0517 22.5086H53.5862V26.9741H58.0517V22.5086Z" fill="#130E2F"/>
<path d="M58.0517 26.9741H53.5862V31.4396H58.0517V26.9741Z" fill="#130E2F"/>
<path d="M58.0517 35.9052H53.5862V40.3707H58.0517V35.9052Z" fill="#130E2F"/>
<path d="M58.0517 40.3707H53.5862V44.8362H58.0517V40.3707Z" fill="#130E2F"/>
<path d="M58.0517 67.1638H53.5862V71.6293H58.0517V67.1638Z" fill="#130E2F"/>
<path d="M58.0517 93.9569H53.5862V98.4224H58.0517V93.9569Z" fill="#130E2F"/>
<path d="M58.0517 98.4224H53.5862V102.888H58.0517V98.4224Z" fill="#130E2F"/>
<path d="M58.0517 102.888H53.5862V107.353H58.0517V102.888Z" fill="#130E2F"/>
<path d="M62.5173 4.64655H58.0518V9.11206H62.5173V4.64655Z" fill="#130E2F"/>
<path d="M62.5173 13.5776H58.0518V18.0431H62.5173V13.5776Z" fill="#130E2F"/>
<path d="M62.5173 18.0431H58.0518V22.5086H62.5173V18.0431Z" fill="#130E2F"/>
<path d="M62.5173 22.5086H58.0518V26.9741H62.5173V22.5086Z" fill="#130E2F"/>
<path d="M62.5173 35.9052H58.0518V40.3707H62.5173V35.9052Z" fill="#130E2F"/>
<path d="M62.5173 40.3707H58.0518V44.8362H62.5173V40.3707Z" fill="#130E2F"/>
<path d="M62.5173 53.7672H58.0518V58.2327H62.5173V53.7672Z" fill="#130E2F"/>
<path d="M62.5173 58.2327H58.0518V62.6982H62.5173V58.2327Z" fill="#130E2F"/>
<path d="M62.5173 62.6982H58.0518V67.1638H62.5173V62.6982Z" fill="#130E2F"/>
<path d="M62.5173 71.6293H58.0518V76.0948H62.5173V71.6293Z" fill="#130E2F"/>
<path d="M62.5173 76.0948H58.0518V80.5604H62.5173V76.0948Z" fill="#130E2F"/>
<path d="M62.5173 80.5604H58.0518V85.0259H62.5173V80.5604Z" fill="#130E2F"/>
<path d="M62.5173 89.4914H58.0518V93.9569H62.5173V89.4914Z" fill="#130E2F"/>
<path d="M62.5173 93.9569H58.0518V98.4224H62.5173V93.9569Z" fill="#130E2F"/>
<path d="M62.5173 98.4224H58.0518V102.888H62.5173V98.4224Z" fill="#130E2F"/>
<path d="M62.5173 107.353H58.0518V111.819H62.5173V107.353Z" fill="#130E2F"/>
<path d="M66.9827 9.11206H62.5172V13.5776H66.9827V9.11206Z" fill="#130E2F"/>
<path d="M66.9827 13.5776H62.5172V18.0431H66.9827V13.5776Z" fill="#130E2F"/>
<path d="M66.9827 22.5086H62.5172V26.9741H66.9827V22.5086Z" fill="#130E2F"/>
<path d="M66.9827 26.9741H62.5172V31.4396H66.9827V26.9741Z" fill="#130E2F"/>
<path d="M66.9827 31.4396H62.5172V35.9052H66.9827V31.4396Z" fill="#130E2F"/>
<path d="M66.9827 35.9052H62.5172V40.3707H66.9827V35.9052Z" fill="#130E2F"/>
<path d="M66.9827 44.8362H62.5172V49.3017H66.9827V44.8362Z" fill="#130E2F"/>
<path d="M66.9827 49.3017H62.5172V53.7672H66.9827V49.3017Z" fill="#130E2F"/>
<path d="M66.9827 62.6982H62.5172V67.1638H66.9827V62.6982Z" fill="#130E2F"/>
<path d="M66.9827 67.1638H62.5172V71.6293H66.9827V67.1638Z" fill="#130E2F"/>
<path d="M66.9827 71.6293H62.5172V76.0948H66.9827V71.6293Z" fill="#130E2F"/>
<path d="M66.9827 89.4914H62.5172V93.9569H66.9827V89.4914Z" fill="#130E2F"/>
<path d="M66.9827 98.4224H62.5172V102.888H66.9827V98.4224Z" fill="#130E2F"/>
<path d="M66.9827 102.888H62.5172V107.353H66.9827V102.888Z" fill="#130E2F"/>
<path d="M66.9827 107.353H62.5172V111.819H66.9827V107.353Z" fill="#130E2F"/>
<path d="M71.4483 4.64655H66.9828V9.11206H71.4483V4.64655Z" fill="#130E2F"/>
<path d="M71.4483 22.5086H66.9828V26.9741H71.4483V22.5086Z" fill="#130E2F"/>
<path d="M71.4483 31.4396H66.9828V35.9052H71.4483V31.4396Z" fill="#130E2F"/>
<path d="M71.4483 35.9052H66.9828V40.3707H71.4483V35.9052Z" fill="#130E2F"/>
<path d="M71.4483 44.8362H66.9828V49.3017H71.4483V44.8362Z" fill="#130E2F"/>
<path d="M71.4483 49.3017H66.9828V53.7672H71.4483V49.3017Z" fill="#130E2F"/>
<path d="M71.4483 53.7672H66.9828V58.2327H71.4483V53.7672Z" fill="#130E2F"/>
<path d="M71.4483 62.6982H66.9828V67.1638H71.4483V62.6982Z" fill="#130E2F"/>
<path d="M71.4483 76.0948H66.9828V80.5604H71.4483V76.0948Z" fill="#130E2F"/>
<path d="M71.4483 89.4914H66.9828V93.9569H71.4483V89.4914Z" fill="#130E2F"/>
<path d="M71.4483 98.4224H66.9828V102.888H71.4483V98.4224Z" fill="#130E2F"/>
<path d="M71.4483 102.888H66.9828V107.353H71.4483V102.888Z" fill="#130E2F"/>
<path d="M75.9138 0.18103H71.4482V4.64655H75.9138V0.18103Z" fill="#130E2F"/>
<path d="M75.9138 9.11206H71.4482V13.5776H75.9138V9.11206Z" fill="#130E2F"/>
<path d="M75.9138 26.9741H71.4482V31.4396H75.9138V26.9741Z" fill="#130E2F"/>
<path d="M75.9138 31.4396H71.4482V35.9052H75.9138V31.4396Z" fill="#130E2F"/>
<path d="M75.9138 35.9052H71.4482V40.3707H75.9138V35.9052Z" fill="#130E2F"/>
<path d="M75.9138 40.3707H71.4482V44.8362H75.9138V40.3707Z" fill="#130E2F"/>
<path d="M75.9138 44.8362H71.4482V49.3017H75.9138V44.8362Z" fill="#130E2F"/>
<path d="M75.9138 49.3017H71.4482V53.7672H75.9138V49.3017Z" fill="#130E2F"/>
<path d="M75.9138 58.2327H71.4482V62.6982H75.9138V58.2327Z" fill="#130E2F"/>
<path d="M75.9138 67.1638H71.4482V71.6293H75.9138V67.1638Z" fill="#130E2F"/>
<path d="M75.9138 71.6293H71.4482V76.0948H75.9138V71.6293Z" fill="#130E2F"/>
<path d="M75.9138 76.0948H71.4482V80.5604H75.9138V76.0948Z" fill="#130E2F"/>
<path d="M75.9138 80.5604H71.4482V85.0259H75.9138V80.5604Z" fill="#130E2F"/>
<path d="M75.9138 85.0259H71.4482V89.4914H75.9138V85.0259Z" fill="#130E2F"/>
<path d="M75.9138 89.4914H71.4482V93.9569H75.9138V89.4914Z" fill="#130E2F"/>
<path d="M75.9138 102.888H71.4482V107.353H75.9138V102.888Z" fill="#130E2F"/>
<path d="M80.3793 35.9052H75.9138V40.3707H80.3793V35.9052Z" fill="#130E2F"/>
<path d="M80.3793 40.3707H75.9138V44.8362H80.3793V40.3707Z" fill="#130E2F"/>
<path d="M80.3793 53.7672H75.9138V58.2327H80.3793V53.7672Z" fill="#130E2F"/>
<path d="M80.3793 58.2327H75.9138V62.6982H80.3793V58.2327Z" fill="#130E2F"/>
<path d="M80.3793 71.6293H75.9138V76.0948H80.3793V71.6293Z" fill="#130E2F"/>
<path d="M80.3793 89.4914H75.9138V93.9569H80.3793V89.4914Z" fill="#130E2F"/>
<path d="M80.3793 93.9569H75.9138V98.4224H80.3793V93.9569Z" fill="#130E2F"/>
<path d="M80.3793 102.888H75.9138V107.353H80.3793V102.888Z" fill="#130E2F"/>
<path d="M84.8448 0.18103H80.3793V4.64655H84.8448V0.18103Z" fill="#130E2F"/>
<path d="M84.8448 4.64655H80.3793V9.11206H84.8448V4.64655Z" fill="#130E2F"/>
<path d="M84.8448 9.11206H80.3793V13.5776H84.8448V9.11206Z" fill="#130E2F"/>
<path d="M84.8448 13.5776H80.3793V18.0431H84.8448V13.5776Z" fill="#130E2F"/>
<path d="M84.8448 18.0431H80.3793V22.5086H84.8448V18.0431Z" fill="#130E2F"/>
<path d="M84.8448 22.5086H80.3793V26.9741H84.8448V22.5086Z" fill="#130E2F"/>
<path d="M84.8448 26.9741H80.3793V31.4396H84.8448V26.9741Z" fill="#130E2F"/>
<path d="M84.8448 44.8362H80.3793V49.3017H84.8448V44.8362Z" fill="#130E2F"/>
<path d="M84.8448 53.7672H80.3793V58.2327H84.8448V53.7672Z" fill="#130E2F"/>
<path d="M84.8448 62.6982H80.3793V67.1638H84.8448V62.6982Z" fill="#130E2F"/>
<path d="M84.8448 67.1638H80.3793V71.6293H84.8448V67.1638Z" fill="#130E2F"/>
<path d="M84.8448 71.6293H80.3793V76.0948H84.8448V71.6293Z" fill="#130E2F"/>
<path d="M84.8448 80.5604H80.3793V85.0259H84.8448V80.5604Z" fill="#130E2F"/>
<path d="M84.8448 89.4914H80.3793V93.9569H84.8448V89.4914Z" fill="#130E2F"/>
<path d="M84.8448 93.9569H80.3793V98.4224H84.8448V93.9569Z" fill="#130E2F"/>
<path d="M84.8448 107.353H80.3793V111.819H84.8448V107.353Z" fill="#130E2F"/>
<path d="M89.3104 0.18103H84.8448V4.64655H89.3104V0.18103Z" fill="#130E2F"/>
<path d="M89.3104 26.9741H84.8448V31.4396H89.3104V26.9741Z" fill="#130E2F"/>
<path d="M89.3104 35.9052H84.8448V40.3707H89.3104V35.9052Z" fill="#130E2F"/>
<path d="M89.3104 40.3707H84.8448V44.8362H89.3104V40.3707Z" fill="#130E2F"/>
<path d="M89.3104 44.8362H84.8448V49.3017H89.3104V44.8362Z" fill="#130E2F"/>
<path d="M89.3104 53.7672H84.8448V58.2327H89.3104V53.7672Z" fill="#130E2F"/>
<path d="M89.3104 58.2327H84.8448V62.6982H89.3104V58.2327Z" fill="#130E2F"/>
<path d="M89.3104 62.6982H84.8448V67.1638H89.3104V62.6982Z" fill="#130E2F"/>
<path d="M89.3104 67.1638H84.8448V71.6293H89.3104V67.1638Z" fill="#130E2F"/>
<path d="M89.3104 71.6293H84.8448V76.0948H89.3104V71.6293Z" fill="#130E2F"/>
<path d="M89.3104 89.4914H84.8448V93.9569H89.3104V89.4914Z" fill="#130E2F"/>
<path d="M89.3104 102.888H84.8448V107.353H89.3104V102.888Z" fill="#130E2F"/>
<path d="M89.3104 107.353H84.8448V111.819H89.3104V107.353Z" fill="#130E2F"/>
<path d="M93.7758 0.18103H89.3103V4.64655H93.7758V0.18103Z" fill="#130E2F"/>
<path d="M93.7758 9.11206H89.3103V13.5776H93.7758V9.11206Z" fill="#130E2F"/>
<path d="M93.7758 13.5776H89.3103V18.0431H93.7758V13.5776Z" fill="#130E2F"/>
<path d="M93.7758 18.0431H89.3103V22.5086H93.7758V18.0431Z" fill="#130E2F"/>
<path d="M93.7758 26.9741H89.3103V31.4396H93.7758V26.9741Z" fill="#130E2F"/>
<path d="M93.7758 53.7672H89.3103V58.2327H93.7758V53.7672Z" fill="#130E2F"/>
<path d="M93.7758 62.6982H89.3103V67.1638H93.7758V62.6982Z" fill="#130E2F"/>
<path d="M93.7758 67.1638H89.3103V71.6293H93.7758V67.1638Z" fill="#130E2F"/>
<path d="M93.7758 71.6293H89.3103V76.0948H93.7758V71.6293Z" fill="#130E2F"/>
<path d="M93.7758 76.0948H89.3103V80.5604H93.7758V76.0948Z" fill="#130E2F"/>
<path d="M93.7758 80.5604H89.3103V85.0259H93.7758V80.5604Z" fill="#130E2F"/>
<path d="M93.7758 85.0259H89.3103V89.4914H93.7758V85.0259Z" fill="#130E2F"/>
<path d="M93.7758 89.4914H89.3103V93.9569H93.7758V89.4914Z" fill="#130E2F"/>
<path d="M93.7758 93.9569H89.3103V98.4224H93.7758V93.9569Z" fill="#130E2F"/>
<path d="M93.7758 102.888H89.3103V107.353H93.7758V102.888Z" fill="#130E2F"/>
<path d="M93.7758 107.353H89.3103V111.819H93.7758V107.353Z" fill="#130E2F"/>
<path d="M98.2414 0.18103H93.7759V4.64655H98.2414V0.18103Z" fill="#130E2F"/>
<path d="M98.2414 9.11206H93.7759V13.5776H98.2414V9.11206Z" fill="#130E2F"/>
<path d="M98.2414 13.5776H93.7759V18.0431H98.2414V13.5776Z" fill="#130E2F"/>
<path d="M98.2414 18.0431H93.7759V22.5086H98.2414V18.0431Z" fill="#130E2F"/>
<path d="M98.2414 26.9741H93.7759V31.4396H98.2414V26.9741Z" fill="#130E2F"/>
<path d="M98.2414 35.9052H93.7759V40.3707H98.2414V35.9052Z" fill="#130E2F"/>
<path d="M98.2414 44.8362H93.7759V49.3017H98.2414V44.8362Z" fill="#130E2F"/>
<path d="M98.2414 58.2327H93.7759V62.6982H98.2414V58.2327Z" fill="#130E2F"/>
<path d="M98.2414 62.6982H93.7759V67.1638H98.2414V62.6982Z" fill="#130E2F"/>
<path d="M98.2414 76.0948H93.7759V80.5604H98.2414V76.0948Z" fill="#130E2F"/>
<path d="M98.2414 85.0259H93.7759V89.4914H98.2414V85.0259Z" fill="#130E2F"/>
<path d="M98.2414 93.9569H93.7759V98.4224H98.2414V93.9569Z" fill="#130E2F"/>
<path d="M98.2414 98.4224H93.7759V102.888H98.2414V98.4224Z" fill="#130E2F"/>
<path d="M98.2414 102.888H93.7759V107.353H98.2414V102.888Z" fill="#130E2F"/>
<path d="M98.2414 107.353H93.7759V111.819H98.2414V107.353Z" fill="#130E2F"/>
<path d="M102.707 0.18103H98.2413V4.64655H102.707V0.18103Z" fill="#130E2F"/>
<path d="M102.707 9.11206H98.2413V13.5776H102.707V9.11206Z" fill="#130E2F"/>
<path d="M102.707 13.5776H98.2413V18.0431H102.707V13.5776Z" fill="#130E2F"/>
<path d="M102.707 18.0431H98.2413V22.5086H102.707V18.0431Z" fill="#130E2F"/>
<path d="M102.707 26.9741H98.2413V31.4396H102.707V26.9741Z" fill="#130E2F"/>
<path d="M102.707 53.7672H98.2413V58.2327H102.707V53.7672Z" fill="#130E2F"/>
<path d="M102.707 71.6293H98.2413V76.0948H102.707V71.6293Z" fill="#130E2F"/>
<path d="M102.707 80.5604H98.2413V85.0259H102.707V80.5604Z" fill="#130E2F"/>
<path d="M102.707 89.4914H98.2413V93.9569H102.707V89.4914Z" fill="#130E2F"/>
<path d="M102.707 93.9569H98.2413V98.4224H102.707V93.9569Z" fill="#130E2F"/>
<path d="M102.707 98.4224H98.2413V102.888H102.707V98.4224Z" fill="#130E2F"/>
<path d="M102.707 107.353H98.2413V111.819H102.707V107.353Z" fill="#130E2F"/>
<path d="M107.172 0.18103H102.707V4.64655H107.172V0.18103Z" fill="#130E2F"/>
<path d="M107.172 26.9741H102.707V31.4396H107.172V26.9741Z" fill="#130E2F"/>
<path d="M107.172 35.9052H102.707V40.3707H107.172V35.9052Z" fill="#130E2F"/>
<path d="M107.172 40.3707H102.707V44.8362H107.172V40.3707Z" fill="#130E2F"/>
<path d="M107.172 44.8362H102.707V49.3017H107.172V44.8362Z" fill="#130E2F"/>
<path d="M107.172 53.7672H102.707V58.2327H107.172V53.7672Z" fill="#130E2F"/>
<path d="M107.172 58.2327H102.707V62.6982H107.172V58.2327Z" fill="#130E2F"/>
<path d="M107.172 62.6982H102.707V67.1638H107.172V62.6982Z" fill="#130E2F"/>
<path d="M107.172 80.5604H102.707V85.0259H107.172V80.5604Z" fill="#130E2F"/>
<path d="M107.172 85.0259H102.707V89.4914H107.172V85.0259Z" fill="#130E2F"/>
<path d="M107.172 93.9569H102.707V98.4224H107.172V93.9569Z" fill="#130E2F"/>
<path d="M107.172 107.353H102.707V111.819H107.172V107.353Z" fill="#130E2F"/>
<path d="M111.638 0.18103H107.172V4.64655H111.638V0.18103Z" fill="#130E2F"/>
<path d="M111.638 4.64655H107.172V9.11206H111.638V4.64655Z" fill="#130E2F"/>
<path d="M111.638 9.11206H107.172V13.5776H111.638V9.11206Z" fill="#130E2F"/>
<path d="M111.638 13.5776H107.172V18.0431H111.638V13.5776Z" fill="#130E2F"/>
<path d="M111.638 18.0431H107.172V22.5086H111.638V18.0431Z" fill="#130E2F"/>
<path d="M111.638 22.5086H107.172V26.9741H111.638V22.5086Z" fill="#130E2F"/>
<path d="M111.638 26.9741H107.172V31.4396H111.638V26.9741Z" fill="#130E2F"/>
<path d="M111.638 44.8362H107.172V49.3017H111.638V44.8362Z" fill="#130E2F"/>
<path d="M111.638 49.3017H107.172V53.7672H111.638V49.3017Z" fill="#130E2F"/>
<path d="M111.638 53.7672H107.172V58.2327H111.638V53.7672Z" fill="#130E2F"/>
<path d="M111.638 62.6982H107.172V67.1638H111.638V62.6982Z" fill="#130E2F"/>
<path d="M111.638 67.1638H107.172V71.6293H111.638V67.1638Z" fill="#130E2F"/>
<path d="M111.638 80.5604H107.172V85.0259H111.638V80.5604Z" fill="#130E2F"/>
<path d="M111.638 93.9569H107.172V98.4224H111.638V93.9569Z" fill="#130E2F"/>
<path d="M111.638 98.4224H107.172V102.888H111.638V98.4224Z" fill="#130E2F"/>
<path d="M111.638 102.888H107.172V107.353H111.638V102.888Z" fill="#130E2F"/>
<path d="M111.638 107.353H107.172V111.819H111.638V107.353Z" fill="#130E2F"/>
</g>
<defs>
<clipPath id="clip0_66_2893">
<rect width="112" height="112" fill="white"/>
</clipPath>
</defs>
</svg>
